<?xml version="1.0" standalone="no"?>
<svg xmlns:xlink="http://www.w3.org/1999/xlink" id="wave" style="transform:rotate(0deg); transition: 0.3s" viewBox="0 0 1440 150" version="1.1" xmlns="http://www.w3.org/2000/svg"><defs><linearGradient id="sw-gradient-0" x1="0" x2="0" y1="1" y2="0"><stop stop-color="rgba(230, 57, 70, 1)" offset="0%"/><stop stop-color="rgba(29, 53, 87, 1)" offset="100%"/></linearGradient></defs><path style="transform:translate(0, 0px); opacity:1" fill="url(#sw-gradient-0)" d="M0,15L720,135L1440,30L2160,135L2880,75L3600,90L4320,60L5040,0L5760,30L6480,105L7200,45L7920,45L8640,30L9360,15L10080,15L10800,90L11520,75L12240,120L12960,135L13680,15L14400,75L15120,120L15840,45L16560,15L17280,30L17280,150L16560,150L15840,150L15120,150L14400,150L13680,150L12960,150L12240,150L11520,150L10800,150L10080,150L9360,150L8640,150L7920,150L7200,150L6480,150L5760,150L5040,150L4320,150L3600,150L2880,150L2160,150L1440,150L720,150L0,150Z"/></svg>