<?xml version="1.0" standalone="no"?>
<svg xmlns:xlink="http://www.w3.org/1999/xlink" id="wave" style="transform:rotate(0deg); transition: 0.3s" viewBox="0 0 1440 210" version="1.1" xmlns="http://www.w3.org/2000/svg"><defs><linearGradient id="sw-gradient-0" x1="0" x2="0" y1="1" y2="0"><stop stop-color="rgba(230, 57, 70, 1)" offset="0%"/><stop stop-color="rgba(29, 53, 87, 1)" offset="100%"/></linearGradient></defs><path style="transform:translate(0, 0px); opacity:1" fill="url(#sw-gradient-0)" d="M0,21L720,189L1440,42L2160,189L2880,105L3600,126L4320,84L5040,0L5760,42L6480,147L7200,63L7920,63L8640,42L9360,21L10080,21L10800,126L11520,105L12240,168L12960,189L13680,21L14400,105L15120,168L15840,63L16560,21L17280,42L17280,210L16560,210L15840,210L15120,210L14400,210L13680,210L12960,210L12240,210L11520,210L10800,210L10080,210L9360,210L8640,210L7920,210L7200,210L6480,210L5760,210L5040,210L4320,210L3600,210L2880,210L2160,210L1440,210L720,210L0,210Z"/></svg>