<?xml version="1.0" standalone="no"?>
<svg xmlns:xlink="http://www.w3.org/1999/xlink" id="wave" style="transform:rotate(0deg); transition: 0.3s" viewBox="0 0 1440 320" 
version="1.1" xmlns="http://www.w3.org/2000/svg"><defs><linearGradient id="sw-gradient-0" x1="0" x2="0" y1="1" y2="0">
<stop stop-color="rgba(220,20,60,1)" offset="0%"/><stop stop-color="rgba(0, 0, 0, 0.6)" offset="100%"/></linearGradient></defs>
<path style="transform:translate(0, 0px); opacity:1" 
fill="url(#sw-gradient-0)" d="M0,96L80,128C160,160,320,224,480,229.3C640,235,800,181,960,176C1120,171,1280,213,1440,240C1600,267,1760,277,1920,
261.3C2080,245,2240,203,2400,186.7C2560,171,2720,181,2880,197.3C3040,213,3200,235,3360,229.3C3520,224,3680,192,3840,197.3C4000,203,4160,245,4320,224C4480,203,4640,117,4800,85.3C4960,53,5120,75,5280,80C5440,85,5600,75,5760,74.7C5920,75,6080,85,6240,74.7C6400,64,6560,32,6720,58.7C6880,85,7040,171,7200,170.7C7360,171,7520,85,7680,69.3C7840,53,8000,107,8160,112C8320,117,8480,75,8640,96C8800,117,8960,203,9120,245.3C9280,288,9440,288,9600,245.3C9760,
203,9920,117,10080,106.7C10240,96,10400,160,10560,170.7C10720,181,10880,139,11040,101.3C11200,64,11360,32,11440,16L11520,0L11520,
320L11440,320C11360,320,11200,320,11040,320C10880,320,10720,320,10560,320C10400,320,10240,320,10080,320C9920,320,9760,320,9600,320C9440,320,9280,320,9120,320C8960,320,8800,320,8640,320C8480,320,8320,320,8160,320C8000,320,7840,320,7680,320C7520,320,7360,320,7200,320C7040,320,6880,320,6720,320C6560,320,6400,320,6240,320C6080,320,5920,320,5760,320C5600,320,5440,320,5280,320C5120,320,4960,320,4800,320C4640,320,4480,320,4320,320C4160,320,4000,320,3840,320C3680,320,3520,320,3360,320C3200,320,3040,320,2880,320C2720,320,2560,320,2400,320C2240,320,2080,320,1920,320C1760,320,1600,320,1440,320C1280,320,1120,320,960,320C800,320,640,320,480,320C320,320,160,320,80,320L0,320Z"/><defs><linearGradient id="sw-gradient-1" x1="0" x2="0" y1="1" y2="0"><stop stop-color="rgba(243, 106, 62, 1)" offset="0%"/><stop stop-color="rgba(255, 179, 11, 1)" offset="100%"/></linearGradient></defs><path style="transform:translate(0, 50px); opacity:0.9" fill="url(#sw-gradient-1)" d="M0,64L80,90.7C160,117,320,171,480,197.3C640,224,800,224,960,186.7C1120,149,1280,75,1440,37.3C1600,0,1760,0,1920,48C2080,96,2240,192,2400,213.3C2560,235,2720,181,2880,144C3040,107,3200,85,3360,96C3520,107,3680,149,3840,154.7C4000,160,4160,128,4320,122.7C4480,117,4640,139,4800,144C4960,149,5120,139,5280,138.7C5440,139,5600,149,5760,133.3C5920,117,6080,75,6240,85.3C6400,96,6560,160,6720,197.3C6880,235,7040,245,7200,224C7360,203,7520,149,7680,154.7C7840,160,8000,224,8160,256C8320,288,8480,288,8640,250.7C8800,213,8960,139,9120,133.3C9280,128,9440,192,9600,186.7C9760,181,9920,107,10080,101.3C10240,96,10400,160,10560,186.7C10720,213,10880,203,11040,202.7C11200,203,11360,213,11440,218.7L11520,224L11520,320L11440,320C11360,320,11200,320,11040,320C10880,320,10720,320,10560,320C10400,320,10240,320,10080,320C9920,320,9760,320,9600,320C9440,320,9280,320,9120,320C8960,320,8800,320,8640,320C8480,320,8320,320,8160,320C8000,320,7840,320,7680,320C7520,320,7360,320,7200,320C7040,320,6880,320,6720,320C6560,320,6400,320,6240,320C6080,320,5920,320,5760,320C5600,320,5440,320,5280,320C5120,320,4960,320,4800,320C4640,320,4480
,320,4320,320C4160,320,4000,320,3840,320C3680,320,3520,320,3360,320C3200,320,3040,320,2880,320C2720,320,2560,320,2400,320C2240,320,2080,320,1920,320C1760,320,1600,320,1440,320C1280,320,1120,320,960,320C800,320,640,320,480,320C320,320,160,320,80,320L0,320Z"/></svg>